{
    "accessors" : [
        {
            "bufferView" : 0, 
            "componentType" : 5123, 
            "count" : 18216, 
            "max" : [
                12275
            ], 
            "min" : [
                0
            ], 
            "type" : "SCALAR"
        }, 
        {
            "bufferView" : 1, 
            "componentType" : 5126, 
            "count" : 12276, 
            "max" : [
                13.964900970458984, 
                2.761457681655884, 
                13.964900970458984
            ], 
            "min" : [
                -13.964900970458984, 
                -0.1805613785982132, 
                -13.964900970458984
            ], 
            "type" : "VEC3"
        }, 
        {
            "bufferView" : 2, 
            "componentType" : 5126, 
            "count" : 12276, 
            "max" : [
                0.9909271597862244, 
                1.0, 
                1.0
            ], 
            "min" : [
                -0.9909265637397766, 
                -1.0, 
                -0.9909276962280273
            ], 
            "type" : "VEC3"
        }, 
        {
            "bufferView" : 3, 
            "componentType" : 5126, 
            "count" : 12276, 
            "max" : [
                1.0, 
                1.0, 
                1.0, 
                1.0
            ], 
            "min" : [
                -1.0, 
                -0.9651862978935242, 
                -1.0, 
                -1.0
            ], 
            "type" : "VEC4"
        }, 
        {
            "bufferView" : 4, 
            "componentType" : 5126, 
            "count" : 12276, 
            "max" : [
                0.9543482661247253, 
                0.843364953994751
            ], 
            "min" : [
                0.015979737043380737, 
                0.0357745885848999
            ], 
            "type" : "VEC2"
        }
    ], 
    "asset" : {
        "generator" : "Khronos Blender glTF 2.0 exporter", 
        "version" : "2.0"
    }, 
    "bufferViews" : [
        {
            "buffer" : 0, 
            "byteLength" : 36432, 
            "byteOffset" : 0, 
            "target" : 34963
        }, 
        {
            "buffer" : 0, 
            "byteLength" : 147312, 
            "byteOffset" : 36432, 
            "target" : 34962
        }, 
        {
            "buffer" : 0, 
            "byteLength" : 147312, 
            "byteOffset" : 183744, 
            "target" : 34962
        }, 
        {
            "buffer" : 0, 
            "byteLength" : 196416, 
            "byteOffset" : 331056, 
            "target" : 34962
        }, 
        {
            "buffer" : 0, 
            "byteLength" : 98208, 
            "byteOffset" : 527472, 
            "target" : 34962
        }
    ], 
    "buffers" : [
        {
            "byteLength" : 625680, 
            "uri" : "piramide.bin"
        }
    ], 
    "images" : [
        {
            "uri" : "piramide.png"
        }
    ], 
    "materials" : [
        {
            "name" : "Material", 
            "pbrMetallicRoughness" : {
                "baseColorFactor" : [
                    0.800000011920929, 
                    0.800000011920929, 
                    0.800000011920929, 
                    1.0
                ], 
                "baseColorTexture" : {
                    "index" : 0
                }, 
                "metallicFactor" : 0.0
            }
        }
    ], 
    "meshes" : [
        {
            "name" : "Cube", 
            "primitives" : [
                {
                    "attributes" : {
                        "NORMAL" : 2, 
                        "POSITION" : 1, 
                        "TANGENT" : 3, 
                        "TEXCOORD_0" : 4
                    }, 
                    "indices" : 0, 
                    "material" : 0
                }
            ]
        }
    ], 
    "nodes" : [
        {
            "mesh" : 0, 
            "name" : "Cube", 
            "scale" : [
                1.6379772424697876, 
                1.6379772424697876, 
                1.6379772424697876
            ]
        }
    ], 
    "samplers" : [
        {}
    ], 
    "scene" : 0, 
    "scenes" : [
        {
            "name" : "Scene", 
            "nodes" : [
                0
            ]
        }
    ], 
    "textures" : [
        {
            "sampler" : 0, 
            "source" : 0
        }
    ]
}
