{
    "accessors" : [
        {
            "bufferView" : 0, 
            "componentType" : 5123, 
            "count" : 2904, 
            "max" : [
                571
            ], 
            "min" : [
                0
            ], 
            "type" : "SCALAR"
        }, 
        {
            "bufferView" : 1, 
            "componentType" : 5126, 
            "count" : 572, 
            "max" : [
                1.3671875, 
                1.5873280763626099, 
                0.7546253800392151
            ], 
            "min" : [
                -1.3671875, 
                0.0005800724029541016, 
                -1.3377618789672852
            ], 
            "type" : "VEC3"
        }, 
        {
            "bufferView" : 2, 
            "componentType" : 5126, 
            "count" : 572, 
            "max" : [
                0.9989318251609802, 
                0.999969482421875, 
                0.999114990234375
            ], 
            "min" : [
                -0.9989318251609802, 
                -0.99932861328125, 
                -0.9860225319862366
            ], 
            "type" : "VEC3"
        }, 
        {
            "bufferView" : 3, 
            "componentType" : 5126, 
            "count" : 572, 
            "max" : [
                0.9999983906745911, 
                0.9876338243484497, 
                0.9957456588745117, 
                1.0
            ], 
            "min" : [
                -0.9956020712852478, 
                -0.9883944988250732, 
                -0.9985848665237427, 
                -1.0
            ], 
            "type" : "VEC4"
        }, 
        {
            "bufferView" : 4, 
            "componentType" : 5126, 
            "count" : 572, 
            "max" : [
                0.999896228313446, 
                0.9998962607351132
            ], 
            "min" : [
                0.00010373926488682628, 
                0.00643688440322876
            ], 
            "type" : "VEC2"
        }
    ], 
    "asset" : {
        "copyright" : "@hernandoramos", 
        "generator" : "Khronos Blender glTF 2.0 exporter", 
        "version" : "2.0"
    }, 
    "bufferViews" : [
        {
            "buffer" : 0, 
            "byteLength" : 5808, 
            "byteOffset" : 0, 
            "target" : 34963
        }, 
        {
            "buffer" : 0, 
            "byteLength" : 6864, 
            "byteOffset" : 5808, 
            "target" : 34962
        }, 
        {
            "buffer" : 0, 
            "byteLength" : 6864, 
            "byteOffset" : 12672, 
            "target" : 34962
        }, 
        {
            "buffer" : 0, 
            "byteLength" : 9152, 
            "byteOffset" : 19536, 
            "target" : 34962
        }, 
        {
            "buffer" : 0, 
            "byteLength" : 4576, 
            "byteOffset" : 28688, 
            "target" : 34962
        }
    ], 
    "buffers" : [
        {
            "byteLength" : 33264, 
            "uri" : "mono.bin"
        }
    ], 
    "images" : [
        {
            "uri" : "data:image/png;base64,"
        }
    ], 
    "materials" : [
        {
            "name" : "Material", 
            "pbrMetallicRoughness" : {
                "baseColorTexture" : {
                    "index" : 0
                }, 
                "roughnessFactor" : 0.3181818127632141
            }
        }
    ], 
    "meshes" : [
        {
            "name" : "Suzanne", 
            "primitives" : [
                {
                    "attributes" : {
                        "NORMAL" : 2, 
                        "POSITION" : 1, 
                        "TANGENT" : 3, 
                        "TEXCOORD_0" : 4
                    }, 
                    "indices" : 0, 
                    "material" : 0
                }
            ]
        }
    ], 
    "nodes" : [
        {
            "mesh" : 0, 
            "name" : "Suzanne"
        }
    ], 
    "samplers" : [
        {}
    ], 
    "scene" : 0, 
    "scenes" : [
        {
            "name" : "Scene", 
            "nodes" : [
                0
            ]
        }
    ], 
    "textures" : [
        {
            "sampler" : 0, 
            "source" : 0
        }
    ]
}
